<svg width="311" height="138" viewBox="0 0 311 138" fill="none" xmlns="http://www.w3.org/2000/svg">
<path d="M5.4 13.6H22.24L21.6 16.64H13.4L11.84 23.96H18.68L18.04 27.04H11.2L8.64 39H0L5.4 13.6ZM31.5453 21.36C34.7186 21.36 37.0253 21.92 38.4653 23.04C39.9853 24.2133 40.7453 26.16 40.7453 28.88C40.7453 30.56 40.4653 32.08 39.9053 33.44C39.3453 34.7733 38.5586 35.88 37.5453 36.76C35.5186 38.4667 32.5853 39.32 28.7453 39.32C25.4653 39.32 23.1186 38.6933 21.7053 37.44C20.1853 36.1333 19.4253 34.1733 19.4253 31.56C19.4253 29.8267 19.772 28.2533 20.4653 26.84C21.1853 25.4267 22.212 24.2533 23.5453 23.32C25.492 22.0133 28.1586 21.36 31.5453 21.36ZM28.8253 36.6C29.492 36.6 30.0653 36.2267 30.5453 35.48C31.052 34.7333 31.452 33.8267 31.7453 32.76C32.0386 31.6667 32.252 30.5467 32.3853 29.4C32.5453 28.2267 32.6253 27.2133 32.6253 26.36C32.6253 25.6133 32.5453 25.0533 32.3853 24.68C32.252 24.28 31.9453 24.08 31.4653 24.08C30.7453 24.08 30.1186 24.4667 29.5853 25.24C29.0786 26.0133 28.6653 26.9333 28.3453 28C28.0253 29.0667 27.7853 30.16 27.6253 31.28C27.492 32.4 27.4253 33.3067 27.4253 34C27.4253 35.7333 27.892 36.6 28.8253 36.6ZM45.1931 21.8H51.7131L52.3131 24.8H52.5931C53.2065 23.84 53.9931 23.0267 54.9531 22.36C55.9131 21.6933 57.1798 21.36 58.7531 21.36C58.8598 21.36 59.0198 21.3733 59.2331 21.4C59.4731 21.4 59.7265 21.44 59.9931 21.52C60.2865 21.5733 60.5798 21.6667 60.8731 21.8C61.1931 21.9067 61.4998 22.0667 61.7931 22.28L60.0331 30.52H55.6731C55.6198 28.8667 55.4731 27.72 55.2331 27.08C54.9931 26.4133 54.6065 26.08 54.0731 26.08C53.8065 26.08 53.5131 26.1467 53.1931 26.28C52.8998 26.3867 52.5931 26.64 52.2731 27.04L49.7131 39H41.5531L45.1931 21.8ZM72.0091 24.36C72.5691 23.8267 73.1957 23.3333 73.8891 22.88C74.5024 22.5067 75.2357 22.16 76.0891 21.84C76.9424 21.52 77.9024 21.36 78.9691 21.36C80.2491 21.36 81.1957 21.6533 81.8091 22.24C82.4491 22.8267 82.8091 23.5467 82.8891 24.4H83.1291C83.7424 23.84 84.4091 23.3333 85.1291 22.88C85.7424 22.5067 86.4624 22.16 87.2891 21.84C88.1157 21.52 88.9957 21.36 89.9291 21.36C91.3157 21.36 92.4357 21.7467 93.2891 22.52C94.1691 23.2667 94.6091 24.24 94.6091 25.44C94.6091 26.0533 94.5024 26.8667 94.2891 27.88C94.0757 28.8933 93.8357 30 93.5691 31.2L91.8891 39H84.0091L86.1691 28.56C86.2491 28.16 86.3291 27.7733 86.4091 27.4C86.4891 27.0267 86.5291 26.72 86.5291 26.48C86.5291 26.1067 86.4224 25.8 86.2091 25.56C85.9957 25.2933 85.6891 25.16 85.2891 25.16C84.7824 25.16 84.3024 25.3467 83.8491 25.72C83.4224 26.0667 83.0891 26.36 82.8491 26.6L80.2491 39H72.7691L74.9691 28.56C75.0224 28.2133 75.0891 27.8667 75.1691 27.52C75.2491 27.1467 75.2891 26.8133 75.2891 26.52C75.2891 26.12 75.1824 25.8 74.9691 25.56C74.7824 25.2933 74.4891 25.16 74.0891 25.16C73.6091 25.16 73.1424 25.3333 72.6891 25.68C72.2624 26.0267 71.9291 26.32 71.6891 26.56L69.0491 39H60.8891L64.5291 21.8H71.0491L71.7691 24.36H72.0091ZM110.662 21.8H118.822L115.142 39H108.662L107.942 36.44H107.702C107.009 37.2667 106.062 37.96 104.862 38.52C103.689 39.0533 102.502 39.32 101.302 39.32C99.7022 39.32 98.4489 38.92 97.5422 38.12C96.6355 37.2933 96.1822 36.2267 96.1822 34.92C96.1822 34.2533 96.2889 33.4267 96.5022 32.44C96.7422 31.4267 96.9555 30.48 97.1422 29.6L98.8222 21.8H106.942L104.942 31.16C104.889 31.3733 104.836 31.6267 104.782 31.92C104.729 32.2133 104.676 32.5067 104.622 32.8C104.569 33.0667 104.516 33.3333 104.462 33.6C104.436 33.84 104.422 34.04 104.422 34.2C104.422 34.6 104.502 34.9467 104.662 35.24C104.849 35.5067 105.169 35.64 105.622 35.64C106.102 35.64 106.556 35.48 106.982 35.16C107.409 34.84 107.742 34.5333 107.982 34.24L110.662 21.8ZM126.901 39H118.741L124.421 12.12H132.621L126.901 39ZM133.739 23.28C135.099 22.6133 136.486 22.1333 137.899 21.84C139.339 21.52 140.939 21.36 142.699 21.36C144.406 21.36 145.819 21.4933 146.939 21.76C148.059 22.0267 148.953 22.4133 149.619 22.92C150.286 23.4267 150.753 24.0267 151.019 24.72C151.286 25.4133 151.419 26.2 151.419 27.08C151.419 27.5867 151.379 28.1333 151.299 28.72C151.246 29.3067 151.179 29.8 151.099 30.2L149.219 39H142.779L142.059 36.44H141.819C140.966 37.3733 139.966 38.0933 138.819 38.6C137.699 39.08 136.579 39.32 135.459 39.32C134.819 39.32 134.193 39.2267 133.579 39.04C132.966 38.8533 132.419 38.5733 131.939 38.2C131.459 37.8 131.073 37.3067 130.779 36.72C130.486 36.1067 130.339 35.3733 130.339 34.52C130.339 33.1333 130.713 32.04 131.459 31.24C132.233 30.4133 133.233 29.8 134.459 29.4C135.713 28.9733 137.113 28.7067 138.659 28.6C140.233 28.4933 141.806 28.44 143.379 28.44C143.433 28.1733 143.499 27.8 143.579 27.32C143.659 26.8133 143.699 26.3733 143.699 26C143.699 25.52 143.566 25.08 143.299 24.68C143.059 24.2533 142.539 24.04 141.739 24.04C140.806 24.04 140.113 24.32 139.659 24.88C139.233 25.4133 138.953 26.0667 138.819 26.84H132.979L133.739 23.28ZM142.939 30.32H142.219C141.446 30.32 140.779 30.4267 140.219 30.64C139.686 30.8267 139.246 31.08 138.899 31.4C138.579 31.72 138.339 32.08 138.179 32.48C138.019 32.88 137.939 33.28 137.939 33.68C137.939 34.32 138.099 34.8 138.419 35.12C138.766 35.44 139.166 35.6 139.619 35.6C140.179 35.6 140.726 35.4 141.259 35C141.819 34.6 142.166 34.0667 142.299 33.4L142.939 30.32ZM161.763 21.8H164.843L165.203 20.16C165.549 18.56 166.056 17.2133 166.723 16.12C167.389 15 168.176 14.0933 169.083 13.4C170.016 12.7067 171.069 12.2133 172.243 11.92C173.416 11.6 174.669 11.44 176.003 11.44C176.829 11.44 177.709 11.4933 178.643 11.6C179.576 11.7067 180.549 11.88 181.563 12.12L180.923 15.32C180.336 15.24 179.709 15.1867 179.043 15.16C178.376 15.1067 177.843 15.08 177.443 15.08C176.909 15.08 176.443 15.12 176.043 15.2C175.669 15.28 175.336 15.44 175.043 15.68C174.749 15.8933 174.496 16.2 174.283 16.6C174.069 17 173.896 17.5333 173.763 18.2L173.003 21.8H177.203L176.683 24.48H172.443L169.363 39H161.203L164.283 24.48H161.163L161.763 21.8ZM178.935 23.28C180.295 22.6133 181.681 22.1333 183.095 21.84C184.535 21.52 186.135 21.36 187.895 21.36C189.601 21.36 191.015 21.4933 192.135 21.76C193.255 22.0267 194.148 22.4133 194.815 22.92C195.481 23.4267 195.948 24.0267 196.215 24.72C196.481 25.4133 196.615 26.2 196.615 27.08C196.615 27.5867 196.575 28.1333 196.495 28.72C196.441 29.3067 196.375 29.8 196.295 30.2L194.415 39H187.975L187.255 36.44H187.015C186.161 37.3733 185.161 38.0933 184.015 38.6C182.895 39.08 181.775 39.32 180.655 39.32C180.015 39.32 179.388 39.2267 178.775 39.04C178.161 38.8533 177.615 38.5733 177.135 38.2C176.655 37.8 176.268 37.3067 175.975 36.72C175.681 36.1067 175.535 35.3733 175.535 34.52C175.535 33.1333 175.908 32.04 176.655 31.24C177.428 30.4133 178.428 29.8 179.655 29.4C180.908 28.9733 182.308 28.7067 183.855 28.6C185.428 28.4933 187.001 28.44 188.575 28.44C188.628 28.1733 188.695 27.8 188.775 27.32C188.855 26.8133 188.895 26.3733 188.895 26C188.895 25.52 188.761 25.08 188.495 24.68C188.255 24.2533 187.735 24.04 186.935 24.04C186.001 24.04 185.308 24.32 184.855 24.88C184.428 25.4133 184.148 26.0667 184.015 26.84H178.175L178.935 23.28ZM188.135 30.32H187.415C186.641 30.32 185.975 30.4267 185.415 30.64C184.881 30.8267 184.441 31.08 184.095 31.4C183.775 31.72 183.535 32.08 183.375 32.48C183.215 32.88 183.135 33.28 183.135 33.68C183.135 34.32 183.295 34.8 183.615 35.12C183.961 35.44 184.361 35.6 184.815 35.6C185.375 35.6 185.921 35.4 186.455 35C187.015 34.6 187.361 34.0667 187.495 33.4L188.135 30.32ZM208.845 24.36C209.405 23.8267 210.032 23.3333 210.725 22.88C211.338 22.5067 212.058 22.16 212.885 21.84C213.712 21.52 214.632 21.36 215.645 21.36C217.032 21.36 218.178 21.72 219.085 22.44C219.992 23.1333 220.445 24.0933 220.445 25.32C220.445 25.6667 220.405 26.0933 220.325 26.6C220.245 27.08 220.152 27.5867 220.045 28.12C219.938 28.6533 219.818 29.2 219.685 29.76C219.578 30.2933 219.485 30.7733 219.405 31.2L217.725 39H209.605L211.805 28.56C211.858 28.2133 211.925 27.8667 212.005 27.52C212.085 27.1467 212.125 26.8133 212.125 26.52C212.125 26.12 212.018 25.8 211.805 25.56C211.618 25.2933 211.325 25.16 210.925 25.16C210.445 25.16 209.978 25.3333 209.525 25.68C209.098 26.0267 208.765 26.32 208.525 26.56L205.885 39H197.725L201.365 21.8H207.885L208.605 24.36H208.845ZM235.299 39H228.819L234.499 12.12H242.699L240.099 24.36H240.379C241.259 23.3467 242.245 22.6267 243.339 22.2C244.459 21.7467 245.565 21.52 246.659 21.52C247.592 21.52 248.365 21.6667 248.979 21.96C249.619 22.2267 250.125 22.6 250.499 23.08C250.872 23.56 251.139 24.1333 251.299 24.8C251.459 25.4667 251.539 26.1733 251.539 26.92C251.539 27.2933 251.512 27.8533 251.459 28.6C251.405 29.3467 251.285 30.1867 251.099 31.12C250.912 32.0267 250.645 32.9733 250.299 33.96C249.952 34.92 249.485 35.8 248.899 36.6C248.339 37.4 247.619 38.0533 246.739 38.56C245.885 39.0667 244.859 39.32 243.659 39.32C242.939 39.32 242.232 39.24 241.539 39.08C240.872 38.92 240.259 38.7067 239.699 38.44C239.165 38.1733 238.685 37.8667 238.259 37.52C237.859 37.1467 237.565 36.7733 237.379 36.4H237.099L235.299 39ZM239.819 35.44C240.459 35.44 240.992 35.1067 241.419 34.44C241.845 33.7467 242.192 32.9467 242.459 32.04C242.725 31.1067 242.912 30.1867 243.019 29.28C243.152 28.3467 243.219 27.6533 243.219 27.2C243.219 26.6667 243.125 26.2267 242.939 25.88C242.779 25.5333 242.472 25.36 242.019 25.36C241.485 25.36 240.992 25.56 240.539 25.96C240.085 26.3333 239.752 26.6533 239.539 26.92L237.979 34.08C238.165 34.4 238.405 34.7067 238.699 35C239.019 35.2933 239.392 35.44 239.819 35.44ZM260.377 39H252.217L257.897 12.12H266.097L260.377 39ZM276.936 21.36C280.109 21.36 282.416 21.92 283.856 23.04C285.376 24.2133 286.136 26.16 286.136 28.88C286.136 30.56 285.856 32.08 285.296 33.44C284.736 34.7733 283.949 35.88 282.936 36.76C280.909 38.4667 277.976 39.32 274.136 39.32C270.856 39.32 268.509 38.6933 267.096 37.44C265.576 36.1333 264.816 34.1733 264.816 31.56C264.816 29.8267 265.163 28.2533 265.856 26.84C266.576 25.4267 267.603 24.2533 268.936 23.32C270.883 22.0133 273.549 21.36 276.936 21.36ZM274.216 36.6C274.883 36.6 275.456 36.2267 275.936 35.48C276.443 34.7333 276.843 33.8267 277.136 32.76C277.429 31.6667 277.643 30.5467 277.776 29.4C277.936 28.2267 278.016 27.2133 278.016 26.36C278.016 25.6133 277.936 25.0533 277.776 24.68C277.643 24.28 277.336 24.08 276.856 24.08C276.136 24.08 275.509 24.4667 274.976 25.24C274.469 26.0133 274.056 26.9333 273.736 28C273.416 29.0667 273.176 30.16 273.016 31.28C272.883 32.4 272.816 33.3067 272.816 34C272.816 35.7333 273.283 36.6 274.216 36.6ZM303.664 21.8H310.144L306.864 37.36C306.624 38.56 306.224 39.6667 305.664 40.68C305.104 41.6933 304.317 42.5733 303.304 43.32C302.317 44.0667 301.064 44.6533 299.544 45.08C298.05 45.5067 296.224 45.72 294.064 45.72C293.664 45.72 293.184 45.7067 292.624 45.68C292.064 45.68 291.49 45.6667 290.904 45.64C290.317 45.64 289.757 45.6267 289.224 45.6C288.69 45.5733 288.264 45.5467 287.944 45.52L288.704 42.64C289.557 42.7733 290.424 42.84 291.304 42.84C292.21 42.8667 292.984 42.88 293.624 42.88C294.424 42.88 295.09 42.8 295.624 42.64C296.184 42.5067 296.637 42.28 296.984 41.96C297.357 41.64 297.65 41.2133 297.864 40.68C298.104 40.1467 298.29 39.4933 298.424 38.72L298.904 36.12H298.624C298.464 36.36 298.224 36.6533 297.904 37C297.61 37.32 297.224 37.64 296.744 37.96C296.264 38.2533 295.69 38.5067 295.024 38.72C294.384 38.9067 293.65 39 292.824 39C291.89 39 291.09 38.8667 290.424 38.6C289.784 38.3067 289.264 37.92 288.864 37.44C288.464 36.9333 288.17 36.3467 287.984 35.68C287.797 34.9867 287.704 34.24 287.704 33.44C287.704 33.0933 287.73 32.56 287.784 31.84C287.837 31.12 287.957 30.3067 288.144 29.4C288.357 28.4933 288.65 27.5733 289.024 26.64C289.424 25.68 289.944 24.8133 290.584 24.04C291.25 23.2667 292.064 22.6267 293.024 22.12C294.01 21.6133 295.197 21.36 296.584 21.36C297.01 21.36 297.477 21.4 297.984 21.48C298.49 21.56 298.984 21.7067 299.464 21.92C299.944 22.1333 300.37 22.44 300.744 22.84C301.117 23.24 301.41 23.76 301.624 24.4H301.864L303.664 21.8ZM299.184 25.28C298.544 25.28 298.01 25.6267 297.584 26.32C297.157 26.9867 296.81 27.7733 296.544 28.68C296.277 29.5867 296.077 30.4933 295.944 31.4C295.837 32.28 295.784 32.9333 295.784 33.36C295.784 33.8933 295.864 34.3467 296.024 34.72C296.21 35.0667 296.53 35.24 296.984 35.24C297.25 35.24 297.504 35.1733 297.744 35.04C298.01 34.9067 298.25 34.76 298.464 34.6C298.704 34.4133 298.904 34.2267 299.064 34.04C299.25 33.8533 299.384 33.7067 299.464 33.6L300.944 26.6C300.73 26.3067 300.477 26.0133 300.184 25.72C299.917 25.4267 299.584 25.28 299.184 25.28Z" fill="black"/>
<path d="M147.257 137.24C147.532 136.858 153.668 127.225 160.893 115.834L174.03 95.1226L176.935 94.0531C182.176 92.1227 188.35 91.2285 192.842 91.749C199.607 92.5327 205.372 95.6165 215.47 103.851C222.844 109.866 226.865 112.35 231.597 113.814C235.208 114.932 235.325 114.947 240.707 114.936C246.72 114.925 249.008 114.529 253.889 112.658L256.407 111.692L270.282 89.7971C277.914 77.7547 284.159 67.7221 284.16 67.5033C284.161 67.2302 283.384 67.3788 281.683 67.9767C275.766 70.0573 269.678 70.9575 265.332 70.3945C258.586 69.5205 253.282 66.705 243.481 58.7958C236.901 53.4862 232.838 50.721 229.543 49.3121C222.728 46.397 214.432 46.2332 206.158 48.8503C203.046 49.835 202.958 49.8468 202.958 49.2845C202.958 48.9357 200.98 48.418 199.513 48.3825C199.183 48.3745 143 136.496 143 137.02C143 137.131 143.513 137.301 144.138 137.4C144.763 137.498 145.606 137.659 146.015 137.757C146.503 137.874 146.926 137.698 147.256 137.24L147.257 137.24ZM234.135 113.941C232.841 113.633 230.4 112.763 228.711 112.008L225.641 110.635L226.432 109.388C226.866 108.702 228.093 106.778 229.158 105.114L231.093 102.087L233.904 103.413C236.689 104.726 240.848 105.921 242.634 105.921C243.144 105.921 243.561 106.075 243.561 106.264C243.561 106.452 242.462 108.383 241.12 110.554C238.367 115.006 238.445 114.968 234.135 113.941ZM244.033 106.066C244.033 105.984 245.201 104.091 246.63 101.861C248.058 99.6305 249.226 97.7105 249.226 97.5942C249.226 97.4779 248.005 97.1618 246.512 96.8917C243.636 96.3717 241.58 95.6908 238.772 94.3287C237.826 93.8697 236.946 93.4944 236.816 93.4944C236.687 93.4944 235.464 95.2585 234.099 97.4147C232.733 99.571 231.417 101.468 231.173 101.631C230.674 101.964 228.169 100.317 223.636 96.675C222.066 95.4139 220.736 94.382 220.681 94.382C220.626 94.382 219.45 96.1795 218.067 98.3763C216.684 100.573 215.387 102.371 215.185 102.371C214.983 102.371 213.804 101.539 212.567 100.521C211.329 99.5043 209.077 97.8562 207.562 96.8588L204.808 95.0456L207.115 91.3851C208.384 89.3718 209.569 87.4685 209.748 87.1555C210.04 86.6452 210.297 86.7219 212.228 87.8951C213.413 88.615 215.76 90.3025 217.444 91.6451C219.128 92.9876 220.578 94.0861 220.666 94.0861C220.755 94.0861 222.036 92.1485 223.514 89.7802C224.991 87.412 226.256 85.5146 226.324 85.5638C226.392 85.6131 228.144 86.9848 230.219 88.6122C232.293 90.2396 234.619 91.9395 235.387 92.3899L236.784 93.2086L239.284 89.1351C240.659 86.8947 241.956 84.945 242.166 84.8022C242.377 84.659 243.47 85.0167 244.608 85.6008C246.896 86.7758 251.004 88.0651 253.357 88.3466C254.201 88.4476 254.892 88.62 254.892 88.7297C254.892 88.8394 253.723 90.754 252.295 92.9842C250.867 95.2146 249.698 97.1071 249.698 97.1901C249.698 97.5072 254.341 97.3212 256.917 96.9007C258.399 96.6587 261.099 95.9914 262.917 95.4176C264.735 94.8439 266.222 94.4157 266.222 94.4661C266.222 94.5164 264.997 96.482 263.5 98.8341L260.778 103.11L257.245 104.217C255.301 104.826 252.543 105.516 251.115 105.751C248.589 106.167 244.033 106.37 244.033 106.066V106.066ZM177.959 89.759C179.292 87.664 180.616 85.773 180.9 85.5569C181.695 84.954 185.373 83.8665 188.963 83.1726C192.619 82.4661 197.545 82.3125 197.158 82.917C197.027 83.1205 195.8 85.0511 194.429 87.2073L191.938 91.1277H189C185.829 91.1277 181.367 91.8956 177.937 93.0311C176.769 93.418 175.75 93.6971 175.674 93.6513C175.598 93.6055 176.626 91.854 177.959 89.759ZM255.579 88.3896C255.454 88.1855 256.503 86.2215 257.909 84.0252C259.316 81.8291 260.368 79.9323 260.248 79.8102C260.128 79.6882 259.731 79.5884 259.367 79.5884C257.817 79.5884 253.291 78.2716 250.645 77.0511C247.827 75.7507 247.786 75.7427 247.38 76.4038C245.638 79.2407 242.427 84.2021 242.256 84.3225C241.987 84.5117 238.625 82.158 234.971 79.2221C233.404 77.963 231.968 76.9922 231.78 77.065C231.592 77.1377 230.316 79.0056 228.943 81.216C227.57 83.4262 226.293 85.1958 226.105 85.1485C225.916 85.101 224.054 83.7307 221.966 82.1034C219.878 80.476 217.622 78.8256 216.953 78.4357L215.735 77.7268L215.296 78.4357C215.054 78.8256 213.87 80.7369 212.665 82.6831C211.459 84.6294 210.397 86.2695 210.304 86.3278C210.21 86.3863 209.104 85.9389 207.845 85.3335C205.433 84.1735 201.131 82.8462 199.759 82.8385C197.486 82.8258 197.529 82.4703 200.339 78.0651C201.828 75.7296 203.091 73.7902 203.143 73.7556C203.196 73.7208 204.292 73.867 205.578 74.0803C208.475 74.5606 211.134 75.4033 213.529 76.6001C214.538 77.1045 215.494 77.5161 215.653 77.5148C215.813 77.5135 217.09 75.6827 218.493 73.4465C219.896 71.2101 221.122 69.3221 221.218 69.251C221.534 69.0158 225.658 71.7081 228.556 74.0406C230.122 75.3017 231.556 76.3336 231.74 76.3336C231.925 76.3336 233.213 74.5288 234.601 72.3228C235.99 70.117 237.253 68.263 237.408 68.2031C237.563 68.1431 239.209 69.3155 241.066 70.8083C244.437 73.5177 247.648 75.6675 247.962 75.4257C248.054 75.3555 249.26 73.5006 250.643 71.3036C252.026 69.1067 253.212 67.264 253.28 67.2086C253.348 67.1532 254.535 67.6361 255.918 68.2815C259.159 69.7941 260.22 70.1337 263.461 70.6965L266.129 71.1597L263.579 75.1415C262.177 77.3313 261.029 79.31 261.029 79.5382C261.029 79.8735 261.628 79.913 264.149 79.7437C267.643 79.5093 270.946 78.8638 274.613 77.6992C275.971 77.2681 277.081 77.0287 277.081 77.1671C277.081 78.0078 272.156 85.1614 271.215 85.6877C268.114 87.4217 256.242 89.4731 255.58 88.3896H255.579ZM189.14 72.1608L191.865 67.9012L194.79 66.9315C199.611 65.3337 208.153 64.211 208.153 65.175C208.153 65.3843 207.006 67.3482 205.603 69.5392L203.053 73.523L199.966 73.7187C196.131 73.962 192.642 74.6148 189.268 75.7207C187.84 76.189 186.614 76.538 186.544 76.4962C186.474 76.4546 187.642 74.5036 189.141 72.1608H189.14ZM215.282 66.2972C214.347 66.003 212.733 65.601 211.694 65.4038C210.655 65.2067 209.553 64.9963 209.245 64.9365C208.874 64.8642 209.563 63.4516 211.292 60.7426C212.725 58.496 214.086 56.5355 214.315 56.3861C215.283 55.7558 221.116 57.3203 225.528 59.3933L226.942 60.0578L229.531 56.0023C230.955 53.7718 232.346 51.8996 232.622 51.842C233.092 51.7436 240.626 57.2123 242.117 58.7341C242.743 59.3737 242.598 59.7442 240.259 63.4592C238.863 65.6762 237.599 67.5375 237.45 67.5953C237.3 67.6532 235.595 66.4463 233.66 64.9133C230.095 62.089 227.19 60.1436 226.884 60.3765C226.745 60.4821 223.296 65.843 221.803 68.274C221.393 68.9418 221.39 68.9415 219.187 67.8873C217.973 67.307 216.216 66.5915 215.282 66.2972ZM197.767 58.7337C197.767 58.6551 198.839 56.8908 200.149 54.8133C202.851 50.5313 203.38 50.1502 208.479 48.8155C211.679 47.9778 218.706 47.0472 219.251 47.389C219.389 47.475 218.283 49.4958 216.795 51.8797L214.088 56.214L211.239 56.2178C208.262 56.222 201.808 57.4251 199.628 58.3822C198.515 58.8707 197.767 59.0121 197.767 58.7337Z" fill="black"/>
<path d="M164.903 137.24C164.628 136.858 158.492 127.225 151.267 115.834L138.13 95.1226L135.225 94.0531C129.984 92.1227 123.81 91.2285 119.318 91.749C112.553 92.5327 106.788 95.6165 96.6904 103.851C89.3158 109.866 85.295 112.35 80.5629 113.814C76.9519 114.932 76.8348 114.947 71.4534 114.936C65.4403 114.925 63.1516 114.529 58.2709 112.658L55.7525 111.692L41.8775 89.7971C34.246 77.7547 28.0013 67.7221 28 67.5033C27.9986 67.2302 28.776 67.3788 30.4765 67.9767C36.394 70.0573 42.4815 70.9575 46.8278 70.3945C53.5736 69.5205 58.878 66.705 68.679 58.7958C75.2585 53.4862 79.3223 50.721 82.6165 49.3121C89.4321 46.397 97.7278 46.2332 106.002 48.8503C109.114 49.835 109.202 49.8468 109.202 49.2845C109.202 48.9357 111.18 48.418 112.647 48.3825C112.977 48.3745 169.16 136.496 169.16 137.02C169.16 137.131 168.647 137.301 168.022 137.4C167.397 137.498 166.554 137.659 166.145 137.757C165.657 137.874 165.234 137.698 164.904 137.24L164.903 137.24ZM78.0245 113.941C79.3191 113.633 81.76 112.763 83.4485 112.008L86.5186 110.635L85.7282 109.388C85.2936 108.702 84.0669 106.778 83.0023 105.114L81.0665 102.087L78.2556 103.413C75.4709 104.726 71.3119 105.921 69.5256 105.921C69.016 105.921 68.5991 106.075 68.5991 106.264C68.5991 106.452 69.6976 108.383 71.0402 110.554C73.7929 115.006 73.7145 114.968 78.0245 113.941ZM68.127 106.066C68.127 105.984 66.9585 104.091 65.5304 101.861C64.1023 99.6305 62.9338 97.7105 62.9338 97.5942C62.9338 97.4779 64.1554 97.1618 65.6484 96.8917C68.5235 96.3717 70.5798 95.6908 73.3881 94.3287C74.3344 93.8697 75.2142 93.4944 75.3435 93.4944C75.4727 93.4944 76.6956 95.2585 78.0612 97.4147C79.4266 99.571 80.7434 101.468 80.9873 101.631C81.4864 101.964 83.9911 100.317 88.5244 96.675C90.0941 95.4139 91.4235 94.382 91.4785 94.382C91.5335 94.382 92.7101 96.1795 94.0931 98.3763C95.4762 100.573 96.7731 102.371 96.9753 102.371C97.1774 102.371 98.3555 101.539 99.5931 100.521C100.831 99.5043 103.083 97.8562 104.598 96.8588L107.352 95.0456L105.045 91.3851C103.776 89.3718 102.591 87.4685 102.412 87.1555C102.12 86.6452 101.863 86.7219 99.9319 87.8951C98.7473 88.615 96.4001 90.3025 94.7161 91.6451C93.032 92.9876 91.5819 94.0861 91.4935 94.0861C91.4051 94.0861 90.1238 92.1485 88.6461 89.7802C87.1685 87.412 85.904 85.5146 85.8361 85.5638C85.7682 85.6131 84.0156 86.9848 81.9414 88.6122C79.8671 90.2396 77.5414 91.9395 76.773 92.3899L75.3761 93.2086L72.8759 89.1351C71.5007 86.8947 70.2039 84.945 69.994 84.8022C69.7832 84.659 68.6896 85.0167 67.552 85.6008C65.2641 86.7758 61.1559 88.0651 58.8028 88.3466C57.9589 88.4476 57.2684 88.62 57.2684 88.7297C57.2684 88.8394 58.4369 90.754 59.865 92.9842C61.2931 95.2146 62.4616 97.1071 62.4616 97.1901C62.4616 97.5072 57.819 97.3212 55.2434 96.9007C53.7609 96.6587 51.0605 95.9914 49.2428 95.4176C47.425 94.8439 45.9378 94.4157 45.9378 94.4661C45.9378 94.5164 47.1626 96.482 48.6596 98.8341L51.3816 103.11L54.9151 104.217C56.8586 104.826 59.6171 105.516 61.0452 105.751C63.571 106.167 68.127 106.37 68.127 106.066V106.066ZM134.201 89.759C132.868 87.664 131.544 85.773 131.259 85.5569C130.465 84.954 126.787 83.8665 123.197 83.1726C119.541 82.4661 114.615 82.3125 115.002 82.917C115.132 83.1205 116.36 85.0511 117.731 87.2073L120.222 91.1277H123.16C126.331 91.1277 130.793 91.8956 134.223 93.0311C135.391 93.418 136.41 93.6971 136.486 93.6513C136.562 93.6055 135.534 91.854 134.201 89.759ZM56.5808 88.3896C56.7058 88.1855 55.6571 86.2215 54.2506 84.0252C52.844 81.8291 51.7916 79.9323 51.9119 79.8102C52.0321 79.6882 52.4288 79.5884 52.7931 79.5884C54.343 79.5884 58.8694 78.2716 61.5145 77.0511C64.3331 75.7507 64.3736 75.7427 64.7798 76.4038C66.5224 79.2407 69.733 84.2021 69.904 84.3225C70.1729 84.5117 73.5348 82.158 77.1888 79.2221C78.7561 77.963 80.192 76.9922 80.3797 77.065C80.5675 77.1377 81.8444 79.0056 83.2171 81.216C84.5899 83.4262 85.8671 85.1958 86.0554 85.1485C86.2437 85.101 88.106 83.7307 90.194 82.1034C92.2819 80.476 94.5379 78.8256 95.2073 78.4357L96.4245 77.7268L96.864 78.4357C97.1056 78.8256 98.2897 80.7369 99.4952 82.6831C100.701 84.6294 101.763 86.2695 101.856 86.3278C101.95 86.3863 103.056 85.9389 104.315 85.3335C106.727 84.1735 111.029 82.8462 112.401 82.8385C114.674 82.8258 114.631 82.4703 111.821 78.0651C110.331 75.7296 109.069 73.7902 109.017 73.7556C108.964 73.7208 107.868 73.867 106.582 74.0803C103.685 74.5606 101.026 75.4033 98.631 76.6001C97.6215 77.1045 96.6655 77.5161 96.5065 77.5148C96.3474 77.5135 95.0696 75.6827 93.6669 73.4465C92.2641 71.2101 91.038 69.3221 90.9423 69.251C90.6263 69.0158 86.5016 71.7081 83.6041 74.0406C82.0375 75.3017 80.6044 76.3336 80.4196 76.3336C80.2347 76.3336 78.9472 74.5288 77.5585 72.3228C76.1699 70.117 74.9069 68.263 74.7521 68.2031C74.5972 68.1431 72.9509 69.3155 71.0936 70.8083C67.7229 73.5177 64.5122 75.6675 64.1975 75.4257C64.106 75.3555 62.8999 73.5006 61.517 71.3036C60.1342 69.1067 58.9475 67.264 58.8798 67.2086C58.812 67.1532 57.625 67.6361 56.2419 68.2815C53.0008 69.7941 51.94 70.1337 48.6986 70.6965L46.0306 71.1597L48.5806 75.1415C49.9831 77.3313 51.1306 79.31 51.1306 79.5382C51.1306 79.8735 50.5316 79.913 48.0106 79.7437C44.5174 79.5093 41.2138 78.8638 37.5468 77.6992C36.1894 77.2681 35.0788 77.0287 35.0788 77.1671C35.0788 78.0078 40.004 85.1614 40.9453 85.6877C44.0464 87.4217 55.9178 89.4731 56.5803 88.3896H56.5808ZM123.02 72.1608L120.295 67.9012L117.369 66.9315C112.549 65.3337 104.007 64.211 104.007 65.175C104.007 65.3843 105.154 67.3482 106.557 69.5392L109.106 73.523L112.194 73.7187C116.029 73.962 119.518 74.6148 122.892 75.7207C124.32 76.189 125.546 76.538 125.616 76.4962C125.686 76.4546 124.518 74.5036 123.019 72.1608H123.02ZM96.8783 66.2972C97.8129 66.003 99.4274 65.601 100.466 65.4038C101.505 65.2067 102.606 64.9963 102.915 64.9365C103.286 64.8642 102.597 63.4516 100.868 60.7426C99.4349 58.496 98.0742 56.5355 97.8447 56.3861C96.8766 55.7558 91.0439 57.3203 86.6324 59.3933L85.2184 60.0578L82.6292 56.0023C81.2051 53.7718 79.8141 51.8996 79.538 51.842C79.0676 51.7436 71.5337 57.2123 70.0431 58.7341C69.4165 59.3737 69.5621 59.7442 71.9009 63.4592C73.2966 65.6762 74.5607 67.5375 74.7103 67.5953C74.8596 67.6532 76.5649 66.4463 78.4999 64.9133C82.0646 62.089 84.9701 60.1436 85.276 60.3765C85.4146 60.4821 88.8639 65.843 90.3571 68.274C90.7674 68.9418 90.7699 68.9415 92.9734 67.8873C94.1865 67.307 95.9437 66.5915 96.8783 66.2972ZM114.393 58.7337C114.393 58.6551 113.321 56.8908 112.01 54.8133C109.309 50.5313 108.78 50.1502 103.681 48.8155C100.481 47.9778 93.4539 47.0472 92.9086 47.389C92.7712 47.475 93.8769 49.4958 95.3654 51.8797L98.0719 56.214L100.921 56.2178C103.897 56.222 110.352 57.4251 112.532 58.3822C113.645 58.8707 114.393 59.0121 114.393 58.7337Z" fill="black"/>
</svg>
