<svg width="257" height="138" viewBox="0 0 257 138" fill="none" xmlns="http://www.w3.org/2000/svg">
<path d="M12.4 13.6H29.24L28.6 16.64H20.4L18.84 23.96H25.68L25.04 27.04H18.2L15.64 39H7L12.4 13.6ZM38.5453 21.36C41.7186 21.36 44.0253 21.92 45.4653 23.04C46.9853 24.2133 47.7453 26.16 47.7453 28.88C47.7453 30.56 47.4653 32.08 46.9053 33.44C46.3453 34.7733 45.5586 35.88 44.5453 36.76C42.5186 38.4667 39.5853 39.32 35.7453 39.32C32.4653 39.32 30.1186 38.6933 28.7053 37.44C27.1853 36.1333 26.4253 34.1733 26.4253 31.56C26.4253 29.8267 26.772 28.2533 27.4653 26.84C28.1853 25.4267 29.212 24.2533 30.5453 23.32C32.492 22.0133 35.1586 21.36 38.5453 21.36ZM35.8253 36.6C36.492 36.6 37.0653 36.2267 37.5453 35.48C38.052 34.7333 38.452 33.8267 38.7453 32.76C39.0386 31.6667 39.252 30.5467 39.3853 29.4C39.5453 28.2267 39.6253 27.2133 39.6253 26.36C39.6253 25.6133 39.5453 25.0533 39.3853 24.68C39.252 24.28 38.9453 24.08 38.4653 24.08C37.7453 24.08 37.1186 24.4667 36.5853 25.24C36.0786 26.0133 35.6653 26.9333 35.3453 28C35.0253 29.0667 34.7853 30.16 34.6253 31.28C34.492 32.4 34.4253 33.3067 34.4253 34C34.4253 35.7333 34.892 36.6 35.8253 36.6ZM52.1931 21.8H58.7131L59.3131 24.8H59.5931C60.2065 23.84 60.9931 23.0267 61.9531 22.36C62.9131 21.6933 64.1798 21.36 65.7531 21.36C65.8598 21.36 66.0198 21.3733 66.2331 21.4C66.4731 21.4 66.7265 21.44 66.9931 21.52C67.2865 21.5733 67.5798 21.6667 67.8731 21.8C68.1931 21.9067 68.4998 22.0667 68.7931 22.28L67.0331 30.52H62.6731C62.6198 28.8667 62.4731 27.72 62.2331 27.08C61.9931 26.4133 61.6065 26.08 61.0731 26.08C60.8065 26.08 60.5131 26.1467 60.1931 26.28C59.8998 26.3867 59.5931 26.64 59.2731 27.04L56.7131 39H48.5531L52.1931 21.8ZM79.0091 24.36C79.5691 23.8267 80.1957 23.3333 80.8891 22.88C81.5024 22.5067 82.2357 22.16 83.0891 21.84C83.9424 21.52 84.9024 21.36 85.9691 21.36C87.2491 21.36 88.1957 21.6533 88.8091 22.24C89.4491 22.8267 89.8091 23.5467 89.8891 24.4H90.1291C90.7424 23.84 91.4091 23.3333 92.1291 22.88C92.7424 22.5067 93.4624 22.16 94.2891 21.84C95.1157 21.52 95.9957 21.36 96.9291 21.36C98.3157 21.36 99.4357 21.7467 100.289 22.52C101.169 23.2667 101.609 24.24 101.609 25.44C101.609 26.0533 101.502 26.8667 101.289 27.88C101.076 28.8933 100.836 30 100.569 31.2L98.8891 39H91.0091L93.1691 28.56C93.2491 28.16 93.3291 27.7733 93.4091 27.4C93.4891 27.0267 93.5291 26.72 93.5291 26.48C93.5291 26.1067 93.4224 25.8 93.2091 25.56C92.9957 25.2933 92.6891 25.16 92.2891 25.16C91.7824 25.16 91.3024 25.3467 90.8491 25.72C90.4224 26.0667 90.0891 26.36 89.8491 26.6L87.2491 39H79.7691L81.9691 28.56C82.0224 28.2133 82.0891 27.8667 82.1691 27.52C82.2491 27.1467 82.2891 26.8133 82.2891 26.52C82.2891 26.12 82.1824 25.8 81.9691 25.56C81.7824 25.2933 81.4891 25.16 81.0891 25.16C80.6091 25.16 80.1424 25.3333 79.6891 25.68C79.2624 26.0267 78.9291 26.32 78.6891 26.56L76.0491 39H67.8891L71.5291 21.8H78.0491L78.7691 24.36H79.0091ZM117.662 21.8H125.822L122.142 39H115.662L114.942 36.44H114.702C114.009 37.2667 113.062 37.96 111.862 38.52C110.689 39.0533 109.502 39.32 108.302 39.32C106.702 39.32 105.449 38.92 104.542 38.12C103.636 37.2933 103.182 36.2267 103.182 34.92C103.182 34.2533 103.289 33.4267 103.502 32.44C103.742 31.4267 103.956 30.48 104.142 29.6L105.822 21.8H113.942L111.942 31.16C111.889 31.3733 111.836 31.6267 111.782 31.92C111.729 32.2133 111.676 32.5067 111.622 32.8C111.569 33.0667 111.516 33.3333 111.462 33.6C111.436 33.84 111.422 34.04 111.422 34.2C111.422 34.6 111.502 34.9467 111.662 35.24C111.849 35.5067 112.169 35.64 112.622 35.64C113.102 35.64 113.556 35.48 113.982 35.16C114.409 34.84 114.742 34.5333 114.982 34.24L117.662 21.8ZM133.901 39H125.741L131.421 12.12H139.621L133.901 39ZM140.739 23.28C142.099 22.6133 143.486 22.1333 144.899 21.84C146.339 21.52 147.939 21.36 149.699 21.36C151.406 21.36 152.819 21.4933 153.939 21.76C155.059 22.0267 155.953 22.4133 156.619 22.92C157.286 23.4267 157.753 24.0267 158.019 24.72C158.286 25.4133 158.419 26.2 158.419 27.08C158.419 27.5867 158.379 28.1333 158.299 28.72C158.246 29.3067 158.179 29.8 158.099 30.2L156.219 39H149.779L149.059 36.44H148.819C147.966 37.3733 146.966 38.0933 145.819 38.6C144.699 39.08 143.579 39.32 142.459 39.32C141.819 39.32 141.193 39.2267 140.579 39.04C139.966 38.8533 139.419 38.5733 138.939 38.2C138.459 37.8 138.073 37.3067 137.779 36.72C137.486 36.1067 137.339 35.3733 137.339 34.52C137.339 33.1333 137.713 32.04 138.459 31.24C139.233 30.4133 140.233 29.8 141.459 29.4C142.713 28.9733 144.113 28.7067 145.659 28.6C147.233 28.4933 148.806 28.44 150.379 28.44C150.433 28.1733 150.499 27.8 150.579 27.32C150.659 26.8133 150.699 26.3733 150.699 26C150.699 25.52 150.566 25.08 150.299 24.68C150.059 24.2533 149.539 24.04 148.739 24.04C147.806 24.04 147.113 24.32 146.659 24.88C146.233 25.4133 145.953 26.0667 145.819 26.84H139.979L140.739 23.28ZM149.939 30.32H149.219C148.446 30.32 147.779 30.4267 147.219 30.64C146.686 30.8267 146.246 31.08 145.899 31.4C145.579 31.72 145.339 32.08 145.179 32.48C145.019 32.88 144.939 33.28 144.939 33.68C144.939 34.32 145.099 34.8 145.419 35.12C145.766 35.44 146.166 35.6 146.619 35.6C147.179 35.6 147.726 35.4 148.259 35C148.819 34.6 149.166 34.0667 149.299 33.4L149.939 30.32ZM173.666 39H167.186L172.866 12.12H181.066L178.466 24.36H178.746C179.626 23.3467 180.613 22.6267 181.706 22.2C182.826 21.7467 183.933 21.52 185.026 21.52C185.959 21.52 186.733 21.6667 187.346 21.96C187.986 22.2267 188.493 22.6 188.866 23.08C189.239 23.56 189.506 24.1333 189.666 24.8C189.826 25.4667 189.906 26.1733 189.906 26.92C189.906 27.2933 189.879 27.8533 189.826 28.6C189.773 29.3467 189.653 30.1867 189.466 31.12C189.279 32.0267 189.013 32.9733 188.666 33.96C188.319 34.92 187.853 35.8 187.266 36.6C186.706 37.4 185.986 38.0533 185.106 38.56C184.253 39.0667 183.226 39.32 182.026 39.32C181.306 39.32 180.599 39.24 179.906 39.08C179.239 38.92 178.626 38.7067 178.066 38.44C177.533 38.1733 177.053 37.8667 176.626 37.52C176.226 37.1467 175.933 36.7733 175.746 36.4H175.466L173.666 39ZM178.186 35.44C178.826 35.44 179.359 35.1067 179.786 34.44C180.213 33.7467 180.559 32.9467 180.826 32.04C181.093 31.1067 181.279 30.1867 181.386 29.28C181.519 28.3467 181.586 27.6533 181.586 27.2C181.586 26.6667 181.493 26.2267 181.306 25.88C181.146 25.5333 180.839 25.36 180.386 25.36C179.853 25.36 179.359 25.56 178.906 25.96C178.453 26.3333 178.119 26.6533 177.906 26.92L176.346 34.08C176.533 34.4 176.773 34.7067 177.066 35C177.386 35.2933 177.759 35.44 178.186 35.44ZM198.744 39H190.584L196.264 12.12H204.464L198.744 39ZM215.303 21.36C218.476 21.36 220.783 21.92 222.223 23.04C223.743 24.2133 224.503 26.16 224.503 28.88C224.503 30.56 224.223 32.08 223.663 33.44C223.103 34.7733 222.316 35.88 221.303 36.76C219.276 38.4667 216.343 39.32 212.503 39.32C209.223 39.32 206.876 38.6933 205.463 37.44C203.943 36.1333 203.183 34.1733 203.183 31.56C203.183 29.8267 203.53 28.2533 204.223 26.84C204.943 25.4267 205.97 24.2533 207.303 23.32C209.25 22.0133 211.916 21.36 215.303 21.36ZM212.583 36.6C213.25 36.6 213.823 36.2267 214.303 35.48C214.81 34.7333 215.21 33.8267 215.503 32.76C215.796 31.6667 216.01 30.5467 216.143 29.4C216.303 28.2267 216.383 27.2133 216.383 26.36C216.383 25.6133 216.303 25.0533 216.143 24.68C216.01 24.28 215.703 24.08 215.223 24.08C214.503 24.08 213.876 24.4667 213.343 25.24C212.836 26.0133 212.423 26.9333 212.103 28C211.783 29.0667 211.543 30.16 211.383 31.28C211.25 32.4 211.183 33.3067 211.183 34C211.183 35.7333 211.65 36.6 212.583 36.6ZM242.031 21.8H248.511L245.231 37.36C244.991 38.56 244.591 39.6667 244.031 40.68C243.471 41.6933 242.684 42.5733 241.671 43.32C240.684 44.0667 239.431 44.6533 237.911 45.08C236.418 45.5067 234.591 45.72 232.431 45.72C232.031 45.72 231.551 45.7067 230.991 45.68C230.431 45.68 229.858 45.6667 229.271 45.64C228.684 45.64 228.124 45.6267 227.591 45.6C227.058 45.5733 226.631 45.5467 226.311 45.52L227.071 42.64C227.924 42.7733 228.791 42.84 229.671 42.84C230.578 42.8667 231.351 42.88 231.991 42.88C232.791 42.88 233.458 42.8 233.991 42.64C234.551 42.5067 235.004 42.28 235.351 41.96C235.724 41.64 236.018 41.2133 236.231 40.68C236.471 40.1467 236.658 39.4933 236.791 38.72L237.271 36.12H236.991C236.831 36.36 236.591 36.6533 236.271 37C235.978 37.32 235.591 37.64 235.111 37.96C234.631 38.2533 234.058 38.5067 233.391 38.72C232.751 38.9067 232.018 39 231.191 39C230.258 39 229.458 38.8667 228.791 38.6C228.151 38.3067 227.631 37.92 227.231 37.44C226.831 36.9333 226.538 36.3467 226.351 35.68C226.164 34.9867 226.071 34.24 226.071 33.44C226.071 33.0933 226.098 32.56 226.151 31.84C226.204 31.12 226.324 30.3067 226.511 29.4C226.724 28.4933 227.018 27.5733 227.391 26.64C227.791 25.68 228.311 24.8133 228.951 24.04C229.618 23.2667 230.431 22.6267 231.391 22.12C232.378 21.6133 233.564 21.36 234.951 21.36C235.378 21.36 235.844 21.4 236.351 21.48C236.858 21.56 237.351 21.7067 237.831 21.92C238.311 22.1333 238.738 22.44 239.111 22.84C239.484 23.24 239.778 23.76 239.991 24.4H240.231L242.031 21.8ZM237.551 25.28C236.911 25.28 236.378 25.6267 235.951 26.32C235.524 26.9867 235.178 27.7733 234.911 28.68C234.644 29.5867 234.444 30.4933 234.311 31.4C234.204 32.28 234.151 32.9333 234.151 33.36C234.151 33.8933 234.231 34.3467 234.391 34.72C234.578 35.0667 234.898 35.24 235.351 35.24C235.618 35.24 235.871 35.1733 236.111 35.04C236.378 34.9067 236.618 34.76 236.831 34.6C237.071 34.4133 237.271 34.2267 237.431 34.04C237.618 33.8533 237.751 33.7067 237.831 33.6L239.311 26.6C239.098 26.3067 238.844 26.0133 238.551 25.72C238.284 25.4267 237.951 25.28 237.551 25.28Z" fill="black"/>
<path d="M119.257 137.24C119.532 136.858 125.668 127.225 132.893 115.834L146.031 95.1226L148.935 94.0531C154.176 92.1227 160.35 91.2285 164.842 91.749C171.607 92.5327 177.372 95.6165 187.47 103.851C194.844 109.866 198.865 112.35 203.597 113.814C207.208 114.932 207.325 114.947 212.707 114.936C218.72 114.925 221.009 114.529 225.889 112.658L228.408 111.692L242.283 89.7971C249.914 77.7547 256.159 67.7221 256.16 67.5033C256.162 67.2302 255.384 67.3788 253.684 67.9767C247.766 70.0573 241.679 70.9575 237.332 70.3945C230.587 69.5205 225.282 66.705 215.481 58.7958C208.902 53.4862 204.838 50.721 201.544 49.3121C194.728 46.397 186.432 46.2332 178.159 48.8503C175.046 49.835 174.958 49.8468 174.958 49.2845C174.958 48.9357 172.981 48.418 171.513 48.3825C171.184 48.3745 115 136.496 115 137.02C115 137.131 115.513 137.301 116.138 137.4C116.763 137.498 117.607 137.659 118.015 137.757C118.503 137.874 118.927 137.698 119.257 137.24L119.257 137.24ZM206.136 113.941C204.841 113.633 202.4 112.763 200.712 112.008L197.642 110.635L198.432 109.388C198.867 108.702 200.093 106.778 201.158 105.114L203.094 102.087L205.905 103.413C208.689 104.726 212.848 105.921 214.635 105.921C215.144 105.921 215.561 106.075 215.561 106.264C215.561 106.452 214.463 108.383 213.12 110.554C210.367 115.006 210.446 114.968 206.136 113.941V113.941ZM216.033 106.066C216.033 105.984 217.202 104.091 218.63 101.861C220.058 99.6305 221.226 97.7105 221.226 97.5942C221.226 97.4779 220.005 97.1618 218.512 96.8917C215.637 96.3717 213.58 95.6908 210.772 94.3287C209.826 93.8697 208.946 93.4944 208.817 93.4944C208.687 93.4944 207.465 95.2585 206.099 97.4147C204.734 99.571 203.417 101.468 203.173 101.631C202.674 101.964 200.169 100.317 195.636 96.675C194.066 95.4139 192.737 94.382 192.682 94.382C192.627 94.382 191.45 96.1795 190.067 98.3763C188.684 100.573 187.387 102.371 187.185 102.371C186.983 102.371 185.805 101.539 184.567 100.521C183.329 99.5043 181.077 97.8562 179.562 96.8588L176.808 95.0456L179.116 91.3851C180.385 89.3718 181.569 87.4685 181.749 87.1555C182.041 86.6452 182.298 86.7218 184.228 87.8951C185.413 88.615 187.76 90.3025 189.444 91.6451C191.128 92.9876 192.578 94.0861 192.667 94.0861C192.755 94.0861 194.036 92.1485 195.514 89.7802C196.992 87.412 198.256 85.5146 198.324 85.5638C198.392 85.6131 200.145 86.9848 202.219 88.6122C204.293 90.2396 206.619 91.9395 207.387 92.3899L208.784 93.2086L211.284 89.1351C212.659 86.8947 213.956 84.945 214.166 84.8022C214.377 84.659 215.471 85.0167 216.608 85.6008C218.896 86.7758 223.004 88.0651 225.357 88.3466C226.201 88.4476 226.892 88.62 226.892 88.7297C226.892 88.8394 225.723 90.754 224.295 92.9842C222.867 95.2146 221.699 97.1071 221.699 97.1901C221.699 97.5072 226.341 97.3212 228.917 96.9007C230.399 96.6587 233.1 95.9914 234.917 95.4176C236.735 94.8439 238.222 94.4157 238.222 94.4661C238.222 94.5164 236.998 96.482 235.501 98.8341L232.779 103.11L229.245 104.217C227.302 104.826 224.543 105.516 223.115 105.751C220.589 106.167 216.033 106.37 216.033 106.066V106.066ZM149.959 89.759C151.292 87.664 152.616 85.773 152.901 85.5569C153.696 84.954 157.374 83.8665 160.964 83.1726C164.619 82.4661 169.545 82.3125 169.158 82.917C169.028 83.1205 167.8 85.0511 166.429 87.2073L163.938 91.1277H161C157.83 91.1277 153.367 91.8956 149.937 93.0311C148.769 93.418 147.751 93.6971 147.674 93.6513C147.598 93.6055 148.627 91.854 149.959 89.759V89.759ZM227.579 88.3896C227.454 88.1855 228.503 86.2215 229.91 84.0252C231.316 81.8291 232.369 79.9323 232.248 79.8102C232.128 79.6882 231.731 79.5884 231.367 79.5884C229.817 79.5884 225.291 78.2716 222.646 77.0511C219.827 75.7507 219.787 75.7427 219.38 76.4038C217.638 79.2407 214.427 84.2021 214.256 84.3225C213.987 84.5117 210.625 82.158 206.971 79.2221C205.404 77.963 203.968 76.9922 203.78 77.065C203.593 77.1377 202.316 79.0056 200.943 81.216C199.57 83.4262 198.293 85.1958 198.105 85.1485C197.916 85.101 196.054 83.7307 193.966 82.1034C191.878 80.476 189.622 78.8256 188.953 78.4357L187.736 77.7268L187.296 78.4357C187.055 78.8256 185.87 80.7369 184.665 82.6831C183.46 84.6294 182.397 86.2695 182.304 86.3278C182.211 86.3863 181.104 85.9389 179.845 85.3335C177.433 84.1735 173.131 82.8462 171.76 82.8385C169.486 82.8258 169.529 82.4703 172.339 78.0651C173.829 75.7296 175.091 73.7902 175.144 73.7556C175.197 73.7208 176.292 73.867 177.578 74.0803C180.475 74.5606 183.134 75.4033 185.529 76.6001C186.539 77.1045 187.495 77.5161 187.654 77.5148C187.813 77.5135 189.091 75.6827 190.493 73.4465C191.896 71.2101 193.122 69.3221 193.218 69.251C193.534 69.0158 197.659 71.7081 200.556 74.0406C202.123 75.3017 203.556 76.3336 203.741 76.3336C203.925 76.3336 205.213 74.5288 206.602 72.3228C207.99 70.117 209.253 68.263 209.408 68.2031C209.563 68.1431 211.209 69.3155 213.067 70.8083C216.437 73.5177 219.648 75.6675 219.963 75.4257C220.054 75.3555 221.26 73.5006 222.643 71.3036C224.026 69.1067 225.213 67.264 225.28 67.2086C225.348 67.1532 226.535 67.6361 227.918 68.2815C231.159 69.7941 232.22 70.1337 235.462 70.6965L238.13 71.1597L235.58 75.1415C234.177 77.3313 233.03 79.31 233.03 79.5382C233.03 79.8735 233.629 79.913 236.15 79.7437C239.643 79.5093 242.946 78.8638 246.613 77.6992C247.971 77.2681 249.081 77.0287 249.081 77.1671C249.081 78.0078 244.156 85.1614 243.215 85.6877C240.114 87.4217 228.242 89.4731 227.58 88.3896H227.579ZM161.141 72.1608L163.865 67.9012L166.791 66.9315C171.611 65.3337 180.153 64.211 180.153 65.175C180.153 65.3843 179.006 67.3482 177.603 69.5392L175.054 73.523L171.967 73.7187C168.131 73.962 164.642 74.6148 161.269 75.7207C159.841 76.189 158.615 76.538 158.544 76.4962C158.474 76.4546 159.643 74.5036 161.141 72.1608H161.141ZM187.282 66.2972C186.347 66.003 184.733 65.601 183.694 65.4038C182.656 65.2067 181.554 64.9963 181.246 64.9365C180.874 64.8642 181.563 63.4516 183.292 60.7426C184.725 58.496 186.086 56.5355 186.315 56.3861C187.284 55.7558 193.116 57.3203 197.528 59.3933L198.942 60.0578L201.531 56.0023C202.955 53.7718 204.346 51.8996 204.622 51.842C205.093 51.7436 212.626 57.2123 214.117 58.7341C214.744 59.3737 214.598 59.7442 212.259 63.4592C210.864 65.6762 209.599 67.5375 209.45 67.5953C209.301 67.6532 207.595 66.4463 205.66 64.9133C202.096 62.089 199.19 60.1436 198.884 60.3765C198.746 60.4821 195.296 65.843 193.803 68.274C193.393 68.9418 193.39 68.9415 191.187 67.8873C189.974 67.307 188.216 66.5915 187.282 66.2972V66.2972ZM169.767 58.7337C169.767 58.6551 170.839 56.8908 172.15 54.8133C174.851 50.5313 175.38 50.1502 180.479 48.8155C183.679 47.9778 190.706 47.0472 191.252 47.389C191.389 47.475 190.283 49.4958 188.795 51.8797L186.088 56.214L183.239 56.2178C180.263 56.222 173.808 57.4251 171.628 58.3822C170.515 58.8707 169.767 59.0121 169.767 58.7337V58.7337Z" fill="black"/>
<path d="M136.903 137.24C136.628 136.858 130.492 127.225 123.267 115.834L110.13 95.1226L107.225 94.0531C101.984 92.1227 95.8099 91.2285 91.3179 91.749C84.553 92.5327 78.7879 95.6165 68.6904 103.851C61.3158 109.866 57.295 112.35 52.5629 113.814C48.9519 114.932 48.8348 114.947 43.4534 114.936C37.4403 114.925 35.1516 114.529 30.2709 112.658L27.7525 111.692L13.8775 89.7971C6.246 77.7547 0.00125185 67.7221 1.85419e-06 67.5033C-0.00138577 67.2302 0.776027 67.3788 2.4765 67.9767C8.394 70.0573 14.4815 70.9575 18.8278 70.3945C25.5736 69.5205 30.878 66.705 40.679 58.7958C47.2585 53.4862 51.3223 50.721 54.6165 49.3121C61.4321 46.397 69.7278 46.2332 78.0015 48.8503C81.1143 49.835 81.2018 49.8468 81.2018 49.2845C81.2018 48.9357 83.1795 48.418 84.6474 48.3825C84.9765 48.3745 141.16 136.496 141.16 137.02C141.16 137.131 140.647 137.301 140.022 137.4C139.397 137.498 138.554 137.659 138.145 137.757C137.657 137.874 137.234 137.698 136.904 137.24L136.903 137.24ZM50.0245 113.941C51.3191 113.633 53.76 112.763 55.4485 112.008L58.5186 110.635L57.7282 109.388C57.2936 108.702 56.0669 106.778 55.0023 105.114L53.0665 102.087L50.2556 103.413C47.4709 104.726 43.3119 105.921 41.5256 105.921C41.016 105.921 40.5991 106.075 40.5991 106.264C40.5991 106.452 41.6976 108.383 43.0402 110.554C45.7929 115.006 45.7145 114.968 50.0245 113.941V113.941ZM40.127 106.066C40.127 105.984 38.9585 104.091 37.5304 101.861C36.1023 99.6305 34.9338 97.7105 34.9338 97.5942C34.9338 97.4779 36.1554 97.1618 37.6484 96.8917C40.5235 96.3717 42.5798 95.6908 45.3881 94.3287C46.3344 93.8697 47.2142 93.4944 47.3435 93.4944C47.4727 93.4944 48.6956 95.2585 50.0612 97.4147C51.4266 99.571 52.7434 101.468 52.9873 101.631C53.4864 101.964 55.9911 100.317 60.5244 96.675C62.0941 95.4139 63.4235 94.382 63.4785 94.382C63.5335 94.382 64.7101 96.1795 66.0931 98.3763C67.4762 100.573 68.7731 102.371 68.9753 102.371C69.1774 102.371 70.3555 101.539 71.5931 100.521C72.8309 99.5043 75.083 97.8562 76.5977 96.8588L79.3519 95.0456L77.0446 91.3851C75.7756 89.3718 74.5908 87.4685 74.4116 87.1555C74.1195 86.6452 73.8626 86.7218 71.9319 87.8951C70.7473 88.615 68.4001 90.3025 66.7161 91.6451C65.032 92.9876 63.5819 94.0861 63.4935 94.0861C63.4051 94.0861 62.1238 92.1485 60.6461 89.7802C59.1685 87.412 57.904 85.5146 57.8361 85.5638C57.7682 85.6131 56.0156 86.9848 53.9414 88.6122C51.8671 90.2396 49.5414 91.9395 48.773 92.3899L47.3761 93.2086L44.8759 89.1351C43.5007 86.8947 42.2039 84.945 41.994 84.8022C41.7832 84.659 40.6896 85.0167 39.552 85.6008C37.2641 86.7758 33.1559 88.0651 30.8028 88.3466C29.9589 88.4476 29.2684 88.62 29.2684 88.7297C29.2684 88.8394 30.4369 90.754 31.865 92.9842C33.2931 95.2146 34.4616 97.1071 34.4616 97.1901C34.4616 97.5072 29.819 97.3212 27.2434 96.9007C25.7609 96.6587 23.0605 95.9914 21.2428 95.4176C19.425 94.8439 17.9378 94.4157 17.9378 94.4661C17.9378 94.5164 19.1626 96.482 20.6596 98.8341L23.3816 103.11L26.9151 104.217C28.8586 104.826 31.6171 105.516 33.0452 105.751C35.571 106.167 40.127 106.37 40.127 106.066V106.066ZM106.201 89.759C104.868 87.664 103.544 85.773 103.259 85.5569C102.465 84.954 98.7866 83.8665 95.1966 83.1726C91.5407 82.4661 86.615 82.3125 87.0023 82.917C87.1325 83.1205 88.3604 85.0511 89.7308 87.2073L92.2224 91.1277H95.16C98.3306 91.1277 102.793 91.8956 106.223 93.0311C107.391 93.418 108.41 93.6971 108.486 93.6513C108.562 93.6055 107.534 91.854 106.201 89.759V89.759ZM28.5808 88.3896C28.7058 88.1855 27.6571 86.2215 26.2506 84.0252C24.844 81.8291 23.7916 79.9323 23.9119 79.8102C24.0321 79.6882 24.4288 79.5884 24.7931 79.5884C26.343 79.5884 30.8694 78.2716 33.5145 77.0511C36.3331 75.7507 36.3736 75.7427 36.7798 76.4038C38.5224 79.2407 41.733 84.2021 41.904 84.3225C42.1729 84.5117 45.5348 82.158 49.1888 79.2221C50.7561 77.963 52.192 76.9922 52.3797 77.065C52.5675 77.1377 53.8444 79.0056 55.2171 81.216C56.5899 83.4262 57.8671 85.1958 58.0554 85.1485C58.2437 85.101 60.106 83.7307 62.194 82.1034C64.2819 80.476 66.5379 78.8256 67.2073 78.4357L68.4245 77.7268L68.864 78.4357C69.1056 78.8256 70.2897 80.7369 71.4952 82.6831C72.7006 84.6294 73.7633 86.2695 73.8564 86.3278C73.9496 86.3863 75.0559 85.9389 76.3149 85.3335C78.7272 84.1735 83.029 82.8462 84.4006 82.8385C86.6741 82.8258 86.631 82.4703 83.8213 78.0651C82.3315 75.7296 81.0694 73.7902 81.0165 73.7556C80.9636 73.7208 79.868 73.867 78.5817 74.0803C75.685 74.5606 73.0259 75.4033 70.631 76.6001C69.6215 77.1045 68.6655 77.5161 68.5065 77.5148C68.3474 77.5135 67.0696 75.6827 65.6669 73.4465C64.2641 71.2101 63.038 69.3221 62.9423 69.251C62.6263 69.0158 58.5016 71.7081 55.6041 74.0406C54.0375 75.3017 52.6044 76.3336 52.4196 76.3336C52.2347 76.3336 50.9472 74.5288 49.5585 72.3228C48.1699 70.117 46.9069 68.263 46.7521 68.2031C46.5972 68.1431 44.9509 69.3155 43.0936 70.8083C39.7229 73.5177 36.5122 75.6675 36.1975 75.4257C36.106 75.3555 34.8999 73.5006 33.517 71.3036C32.1342 69.1067 30.9475 67.264 30.8798 67.2086C30.812 67.1532 29.625 67.6361 28.2419 68.2815C25.0008 69.7941 23.94 70.1337 20.6986 70.6965L18.0306 71.1597L20.5806 75.1415C21.9831 77.3313 23.1306 79.31 23.1306 79.5382C23.1306 79.8735 22.5316 79.913 20.0106 79.7437C16.5174 79.5093 13.2138 78.8638 9.54675 77.6992C8.18938 77.2681 7.07875 77.0287 7.07875 77.1671C7.07875 78.0078 12.004 85.1614 12.9453 85.6877C16.0464 87.4217 27.9178 89.4731 28.5803 88.3896H28.5808ZM95.0195 72.1608L92.2952 67.9012L89.3695 66.9315C84.5489 65.3337 76.007 64.211 76.007 65.175C76.007 65.3843 77.1544 67.3482 78.5567 69.5392L81.1065 73.523L84.1936 73.7187C88.0294 73.962 91.5184 74.6148 94.8915 75.7207C96.3196 76.189 97.5455 76.538 97.6158 76.4962C97.686 76.4546 96.5175 74.5036 95.0191 72.1608H95.0195ZM68.8783 66.2972C69.8129 66.003 71.4274 65.601 72.466 65.4038C73.5046 65.2067 74.6065 64.9963 74.9146 64.9365C75.286 64.8642 74.5968 63.4516 72.8684 60.7426C71.4349 58.496 70.0742 56.5355 69.8447 56.3861C68.8766 55.7558 63.0439 57.3203 58.6324 59.3933L57.2184 60.0578L54.6292 56.0023C53.2051 53.7718 51.8141 51.8996 51.538 51.842C51.0676 51.7436 43.5338 57.2123 42.0431 58.7341C41.4165 59.3737 41.5621 59.7442 43.9009 63.4592C45.2966 65.6762 46.5608 67.5375 46.7103 67.5953C46.8596 67.6532 48.5649 66.4463 50.4999 64.9133C54.0646 62.089 56.9701 60.1436 57.276 60.3765C57.4146 60.4821 60.8639 65.843 62.3571 68.274C62.7674 68.9418 62.7699 68.9415 64.9734 67.8873C66.1865 67.307 67.9438 66.5915 68.8783 66.2972V66.2972ZM86.3932 58.7337C86.3932 58.6551 85.321 56.8908 84.0105 54.8133C81.3094 50.5313 80.7801 50.1502 75.681 48.8155C72.4812 47.9778 65.4539 47.0472 64.9086 47.389C64.7712 47.475 65.8769 49.4958 67.3654 51.8797L70.0719 56.214L72.9214 56.2178C75.8975 56.222 82.352 57.4251 84.5322 58.3822C85.6452 58.8707 86.3932 59.0121 86.3932 58.7337V58.7337Z" fill="black"/>
</svg>
